<svg width="122" height="40" viewBox="0 0 122 40" fill="none" xmlns="http://www.w3.org/2000/svg">
<g clip-path="url(#clip0_7_98)">
<path d="M117.017 39.5917H4.25026C2.17311 39.5917 0.408305 37.6892 0.408305 35.267V4.726C0.408305 2.30371 2.17231 0.408305 4.25026 0.408305H117.017C119.101 0.408305 120.925 2.31234 120.925 4.726V35.267C120.925 37.6805 119.101 39.5917 117.017 39.5917Z" stroke="#D6D6D6" stroke-width="0.816609"/>
<path d="M27.0531 20.0376C27.027 17.1424 29.4236 15.7339 29.5332 15.6684C28.1759 13.6895 26.0722 13.4191 25.3329 13.3975C23.566 13.2116 21.8521 14.4548 20.952 14.4548C20.034 14.4548 18.648 13.4155 17.1541 13.446C15.2319 13.4757 13.4335 14.5886 12.4472 16.3169C10.4117 19.8408 11.9298 25.0194 13.88 27.8678C14.8555 29.2628 15.9954 30.8204 17.4874 30.7656C18.9471 30.7054 19.4923 29.835 21.2539 29.835C22.9992 29.835 23.5112 30.7656 25.0329 30.7306C26.5995 30.7054 27.5858 29.3293 28.5271 27.9217C29.6545 26.3227 30.1072 24.7481 30.1252 24.6672C30.0883 24.6547 27.0827 23.5076 27.0531 20.0376Z" fill="black"/>
<path d="M24.1768 11.5236C24.9619 10.5418 25.4991 9.20608 25.35 7.85059C24.2137 7.90089 22.7926 8.63657 21.9743 9.59682C21.2503 10.443 20.6035 11.8299 20.7706 13.1342C22.047 13.2294 23.3576 12.4901 24.1768 11.5236Z" fill="black"/>
<path d="M48.1829 30.5662H46.1429L45.0255 27.0548H41.1413L40.0769 30.5662H38.0908L41.939 18.612H44.3158L48.1829 30.5662ZM44.6886 25.5817L43.6781 22.4602C43.5712 22.1413 43.3709 21.3903 43.0753 20.2082H43.0394C42.9217 20.7166 42.7322 21.4676 42.4717 22.4602L41.4791 25.5817H44.6886Z" fill="black"/>
<path d="M58.0722 26.1503C58.0722 27.6163 57.676 28.7751 56.8837 29.6257C56.1741 30.383 55.2929 30.7612 54.241 30.7612C53.1056 30.7612 52.29 30.3533 51.7932 29.5377H51.7573V34.0785H49.8422V24.7841C49.8422 23.8624 49.818 22.9166 49.7712 21.9464H51.4555L51.5624 23.3127H51.5983C52.237 22.2833 53.2062 21.7695 54.5069 21.7695C55.5238 21.7695 56.3726 22.171 57.0517 22.9749C57.7326 23.7798 58.0722 24.838 58.0722 26.1503ZM56.1211 26.2204C56.1211 25.3814 55.9325 24.6897 55.5534 24.1454C55.1393 23.5777 54.5833 23.2938 53.8862 23.2938C53.4137 23.2938 52.9843 23.4519 52.6008 23.7636C52.2163 24.078 51.9648 24.4885 51.8471 24.997C51.7879 25.2341 51.7582 25.4281 51.7582 25.5808V27.0181C51.7582 27.6451 51.9504 28.1741 52.3349 28.6062C52.7194 29.0383 53.2188 29.2539 53.8332 29.2539C54.5545 29.2539 55.1159 28.9754 55.5175 28.4203C55.9199 27.8642 56.1211 27.1312 56.1211 26.2204Z" fill="black"/>
<path d="M67.9912 26.1503C67.9912 27.6163 67.595 28.7751 66.8019 29.6257C66.0931 30.383 65.2119 30.7612 64.1601 30.7612C63.0246 30.7612 62.209 30.3533 61.7132 29.5377H61.6772V34.0785H59.7621V24.7841C59.7621 23.8624 59.7379 22.9166 59.6912 21.9464H61.3754L61.4823 23.3127H61.5182C62.156 22.2833 63.1253 21.7695 64.4268 21.7695C65.4428 21.7695 66.2917 22.171 66.9725 22.9749C67.6507 23.7798 67.9912 24.838 67.9912 26.1503ZM66.0401 26.2204C66.0401 25.3814 65.8506 24.6897 65.4715 24.1454C65.0574 23.5777 64.5032 23.2938 63.8052 23.2938C63.3319 23.2938 62.9034 23.4519 62.5189 23.7636C62.1345 24.078 61.8838 24.4885 61.7662 24.997C61.7078 25.2341 61.6772 25.4281 61.6772 25.5808V27.0181C61.6772 27.6451 61.8695 28.1741 62.2521 28.6062C62.6366 29.0374 63.136 29.2539 63.7522 29.2539C64.4736 29.2539 65.035 28.9754 65.4365 28.4203C65.8389 27.8642 66.0401 27.1312 66.0401 26.2204Z" fill="black"/>
<path d="M79.0779 27.2136C79.0779 28.2305 78.7248 29.0578 78.0161 29.6964C77.2373 30.3944 76.1531 30.7429 74.7599 30.7429C73.4736 30.7429 72.4423 30.495 71.6617 29.9982L72.1055 28.402C72.9463 28.9104 73.8688 29.1656 74.874 29.1656C75.5953 29.1656 76.1567 29.0021 76.56 28.6769C76.9615 28.3517 77.1619 27.9152 77.1619 27.3708C77.1619 26.8857 76.9966 26.477 76.6651 26.1456C76.3354 25.8141 75.7848 25.506 75.0159 25.2212C72.9229 24.4407 71.8773 23.2972 71.8773 21.7935C71.8773 20.8107 72.2438 20.005 72.9777 19.378C73.7089 18.7501 74.6844 18.4366 75.9043 18.4366C76.9921 18.4366 77.8957 18.6261 78.6171 19.0043L78.1383 20.5655C77.4646 20.199 76.7028 20.0158 75.8504 20.0158C75.1767 20.0158 74.6503 20.182 74.273 20.5125C73.9541 20.808 73.7942 21.1683 73.7942 21.5949C73.7942 22.0674 73.9766 22.4582 74.3431 22.7654C74.662 23.0492 75.2414 23.3564 76.0821 23.6879C77.1107 24.102 77.8661 24.5862 78.3521 25.1413C78.8362 25.6946 79.0779 26.3872 79.0779 27.2136Z" fill="black"/>
<path d="M85.4134 23.3829H83.3025V27.568C83.3025 28.6324 83.6744 29.1642 84.4199 29.1642C84.7622 29.1642 85.046 29.1346 85.2706 29.0753L85.3236 30.5296C84.9463 30.6706 84.4496 30.7416 83.8343 30.7416C83.0779 30.7416 82.4869 30.5107 82.0602 30.0499C81.6353 29.5882 81.4215 28.8139 81.4215 27.7261V23.3811H80.1639V21.9439H81.4215V20.3656L83.3025 19.7979V21.9439H85.4134V23.3829Z" fill="black"/>
<path d="M94.9347 26.185C94.9347 27.51 94.5556 28.5978 93.7992 29.4484C93.0061 30.3243 91.9533 30.7608 90.6409 30.7608C89.3762 30.7608 88.3692 30.3413 87.6182 29.5023C86.8673 28.6634 86.4918 27.6043 86.4918 26.3279C86.4918 24.9921 86.8781 23.898 87.6533 23.0474C88.4267 22.1958 89.4705 21.77 90.7829 21.77C92.0476 21.77 93.0654 22.1895 93.8334 23.0294C94.5682 23.8441 94.9347 24.896 94.9347 26.185ZM92.9477 26.247C92.9477 25.452 92.7779 24.7703 92.4339 24.2017C92.0323 23.5136 91.4584 23.1704 90.7146 23.1704C89.9448 23.1704 89.36 23.5145 88.9585 24.2017C88.6144 24.7712 88.4447 25.4637 88.4447 26.2829C88.4447 27.0779 88.6144 27.7597 88.9585 28.3274C89.3726 29.0155 89.9511 29.3586 90.6975 29.3586C91.4287 29.3586 92.0027 29.0083 92.4168 28.3094C92.7698 27.7301 92.9477 27.0411 92.9477 26.247Z" fill="black"/>
<path d="M101.161 23.6307C100.972 23.5957 100.77 23.5777 100.558 23.5777C99.8841 23.5777 99.3631 23.8319 98.9966 24.3412C98.6777 24.7904 98.5178 25.3581 98.5178 26.0434V30.5662H96.6036L96.6215 24.661C96.6215 23.6675 96.5973 22.763 96.5497 21.9473H98.2178L98.2878 23.5966H98.3408C98.5429 23.0297 98.8618 22.5734 99.2984 22.2312C99.7251 21.9231 100.186 21.7695 100.683 21.7695C100.86 21.7695 101.019 21.782 101.161 21.8045V23.6307Z" fill="black"/>
<path d="M109.729 25.8486C109.729 26.1917 109.707 26.4809 109.659 26.7172H103.914C103.936 27.5688 104.214 28.22 104.747 28.6691C105.232 29.0707 105.858 29.2719 106.627 29.2719C107.477 29.2719 108.253 29.1362 108.951 28.8641L109.251 30.1935C108.436 30.5492 107.473 30.7262 106.362 30.7262C105.025 30.7262 103.976 30.3327 103.212 29.5467C102.45 28.7608 102.069 27.7053 102.069 26.3812C102.069 25.0814 102.424 23.999 103.134 23.1358C103.878 22.2142 104.883 21.7534 106.148 21.7534C107.39 21.7534 108.331 22.2142 108.969 23.1358C109.475 23.8679 109.729 24.7733 109.729 25.8486ZM107.903 25.3518C107.916 24.7841 107.791 24.2937 107.531 23.8796C107.2 23.3469 106.69 23.081 106.005 23.081C105.379 23.081 104.87 23.3406 104.481 23.8616C104.162 24.2757 103.972 24.7724 103.914 25.3509L107.903 25.3518Z" fill="black"/>
<path d="M44.06 11.2573C44.06 12.3146 43.7429 13.1105 43.1096 13.6449C42.523 14.1381 41.6894 14.3851 40.6097 14.3851C40.0743 14.3851 39.6162 14.3618 39.2327 14.315V8.53827C39.733 8.45743 40.272 8.41611 40.854 8.41611C41.8826 8.41611 42.6578 8.63978 43.1806 9.08711C43.7662 9.59284 44.06 10.3159 44.06 11.2573ZM43.0674 11.2834C43.0674 10.598 42.8859 10.0725 42.523 9.70602C42.1601 9.34043 41.6302 9.15718 40.9322 9.15718C40.6358 9.15718 40.3834 9.17694 40.1741 9.21826V13.6099C40.2899 13.6279 40.5019 13.636 40.81 13.636C41.5304 13.636 42.0865 13.4356 42.4781 13.035C42.8698 12.6344 43.0674 12.0505 43.0674 11.2834Z" fill="black"/>
<path d="M49.3272 12.1814C49.3272 12.8326 49.1413 13.3662 48.7694 13.7848C48.3796 14.2151 47.8631 14.4297 47.2181 14.4297C46.5965 14.4297 46.1016 14.224 45.7324 13.8108C45.3641 13.3985 45.1799 12.8784 45.1799 12.2514C45.1799 11.5957 45.3695 11.0576 45.7503 10.6399C46.1312 10.2223 46.6432 10.013 47.2882 10.013C47.9098 10.013 48.4092 10.2187 48.7874 10.631C49.1467 11.0316 49.3272 11.549 49.3272 12.1814ZM48.3508 12.2119C48.3508 11.8212 48.2664 11.4861 48.0984 11.2068C47.9008 10.869 47.6196 10.7001 47.254 10.7001C46.8759 10.7001 46.5884 10.869 46.3908 11.2068C46.2219 11.4861 46.1384 11.8266 46.1384 12.229C46.1384 12.6197 46.2228 12.9548 46.3908 13.2341C46.5947 13.5719 46.8786 13.7408 47.2451 13.7408C47.6044 13.7408 47.8864 13.5692 48.0894 13.2252C48.2637 12.9404 48.3508 12.6027 48.3508 12.2119Z" fill="black"/>
<path d="M56.3774 10.0992L55.0524 14.3337H54.1901L53.6412 12.4949C53.502 12.0359 53.3888 11.5796 53.3008 11.1268H53.2837C53.202 11.5921 53.0888 12.0476 52.9433 12.4949L52.3603 14.3337H51.4881L50.2422 10.0992H51.2096L51.6884 12.1122C51.8043 12.5883 51.8995 13.0419 51.9758 13.4713H51.9929C52.063 13.1174 52.1789 12.6665 52.3423 12.1212L52.9433 10.1001H53.7104L54.2862 12.0781C54.4254 12.5605 54.5386 13.0249 54.6257 13.4722H54.6518C54.7156 13.0366 54.8117 12.5721 54.9392 12.0781L55.453 10.1001H56.3774V10.0992Z" fill="black"/>
<path d="M61.2618 14.3333H60.3204V11.908C60.3204 11.1606 60.0366 10.787 59.4671 10.787C59.1877 10.787 58.9622 10.8894 58.7871 11.0951C58.6137 11.3008 58.5257 11.5433 58.5257 11.8209V14.3324H57.5843V11.3088C57.5843 10.937 57.5726 10.5336 57.5502 10.0971H58.3775L58.4215 10.7591H58.4475C58.5571 10.5534 58.7206 10.3836 58.9353 10.248C59.1904 10.0899 59.4761 10.0099 59.7887 10.0099C60.1839 10.0099 60.5127 10.1375 60.7741 10.3935C61.0992 10.707 61.2618 11.175 61.2618 11.7966V14.3333Z" fill="black"/>
<path d="M63.8527 14.333H62.9122V8.15561H63.8527V14.333Z" fill="black"/>
<path d="M69.4051 12.1814C69.4051 12.8326 69.2192 13.3662 68.8473 13.7848C68.4575 14.2151 67.9401 14.4297 67.296 14.4297C66.6735 14.4297 66.1785 14.224 65.8102 13.8108C65.442 13.3985 65.2578 12.8784 65.2578 12.2514C65.2578 11.5957 65.4473 11.0576 65.8282 10.6399C66.2091 10.2223 66.7211 10.013 67.3652 10.013C67.9877 10.013 68.4862 10.2187 68.8653 10.631C69.2246 11.0316 69.4051 11.549 69.4051 12.1814ZM68.4278 12.2119C68.4278 11.8212 68.3434 11.4861 68.1754 11.2068C67.9787 10.869 67.6966 10.7001 67.3319 10.7001C66.9528 10.7001 66.6654 10.869 66.4687 11.2068C66.2998 11.4861 66.2163 11.8266 66.2163 12.229C66.2163 12.6197 66.3007 12.9548 66.4687 13.2341C66.6726 13.5719 66.9564 13.7408 67.3229 13.7408C67.6822 13.7408 67.9634 13.5692 68.1664 13.2252C68.3416 12.9404 68.4278 12.6027 68.4278 12.2119Z" fill="black"/>
<path d="M73.9486 14.3336H73.1033L73.0333 13.8459H73.0072C72.718 14.2348 72.3057 14.4297 71.7703 14.4297C71.3706 14.4297 71.0472 14.3013 70.8038 14.0462C70.5828 13.8144 70.4723 13.5261 70.4723 13.1838C70.4723 12.6664 70.6879 12.2721 71.1217 11.999C71.5547 11.726 72.1637 11.5921 72.9479 11.5984V11.5194C72.9479 10.9615 72.6551 10.6831 72.0685 10.6831C71.6508 10.6831 71.2825 10.7882 70.9645 10.9966L70.7732 10.3786C71.1667 10.1351 71.6526 10.013 72.2257 10.013C73.3324 10.013 73.8875 10.5968 73.8875 11.7646V13.324C73.8875 13.7471 73.9082 14.0839 73.9486 14.3336ZM72.9713 12.8784V12.2254C71.9329 12.2074 71.4137 12.4922 71.4137 13.0787C71.4137 13.2997 71.473 13.465 71.5942 13.5755C71.7155 13.686 71.87 13.7408 72.0541 13.7408C72.2607 13.7408 72.4539 13.6752 72.6299 13.545C72.8069 13.4138 72.9156 13.2476 72.956 13.0437C72.9659 12.9979 72.9713 12.9422 72.9713 12.8784Z" fill="black"/>
<path d="M79.3009 14.333H78.4655L78.4215 13.653H78.3954C78.1286 14.1704 77.6741 14.4291 77.0354 14.4291C76.5252 14.4291 76.1003 14.2288 75.7635 13.8282C75.4266 13.4276 75.2587 12.9075 75.2587 12.2688C75.2587 11.5834 75.441 11.0283 75.8075 10.6043C76.1623 10.2091 76.5971 10.0114 77.1145 10.0114C77.6831 10.0114 78.081 10.2028 78.3074 10.5863H78.3254V8.15561H79.2676V13.1922C79.2676 13.6045 79.2784 13.9845 79.3009 14.333ZM78.3254 12.5472V11.8412C78.3254 11.719 78.3164 11.6202 78.2993 11.5448C78.2463 11.3184 78.1322 11.128 77.9589 10.9744C77.7837 10.8208 77.5726 10.7435 77.3292 10.7435C76.9779 10.7435 76.7031 10.8828 76.501 11.1621C76.3007 11.4415 76.1992 11.7981 76.1992 12.2338C76.1992 12.6523 76.2953 12.9919 76.4884 13.2533C76.6923 13.5318 76.9672 13.671 77.3112 13.671C77.6202 13.671 77.8672 13.5551 78.055 13.3225C78.2364 13.1078 78.3254 12.8491 78.3254 12.5472Z" fill="black"/>
<path d="M87.3562 12.1814C87.3562 12.8326 87.1702 13.3662 86.7984 13.7848C86.4085 14.2151 85.8929 14.4297 85.247 14.4297C84.6263 14.4297 84.1314 14.224 83.7613 13.8108C83.393 13.3985 83.2089 12.8784 83.2089 12.2514C83.2089 11.5957 83.3984 11.0576 83.7793 10.6399C84.1601 10.2223 84.6721 10.013 85.318 10.013C85.9387 10.013 86.439 10.2187 86.8163 10.631C87.1756 11.0316 87.3562 11.549 87.3562 12.1814ZM86.3807 12.2119C86.3807 11.8212 86.2962 11.4861 86.1282 11.2068C85.9297 10.869 85.6495 10.7001 85.283 10.7001C84.9057 10.7001 84.6182 10.869 84.4197 11.2068C84.2509 11.4861 84.1673 11.8266 84.1673 12.229C84.1673 12.6197 84.2518 12.9548 84.4197 13.2341C84.6236 13.5719 84.9075 13.7408 85.274 13.7408C85.6333 13.7408 85.9163 13.5692 86.1193 13.2252C86.2926 12.9404 86.3807 12.6027 86.3807 12.2119Z" fill="black"/>
<path d="M92.4196 14.3333H91.4791V11.908C91.4791 11.1606 91.1953 10.787 90.6249 10.787C90.3455 10.787 90.12 10.8894 89.9458 11.0951C89.7715 11.3008 89.6844 11.5433 89.6844 11.8209V14.3324H88.7421V11.3088C88.7421 10.937 88.7313 10.5336 88.7089 10.0971H89.5353L89.5793 10.7591H89.6053C89.7158 10.5534 89.8793 10.3836 90.0931 10.248C90.3491 10.0899 90.6339 10.0099 90.9474 10.0099C91.3417 10.0099 91.6705 10.1375 91.9319 10.3935C92.2579 10.707 92.4196 11.175 92.4196 11.7966V14.3333Z" fill="black"/>
<path d="M98.7529 10.8039H97.7163V12.861C97.7163 13.3837 97.9004 13.6451 98.2651 13.6451C98.434 13.6451 98.5741 13.6308 98.6846 13.6011L98.7089 14.3153C98.5229 14.3853 98.2786 14.4203 97.9777 14.4203C97.6058 14.4203 97.3165 14.3072 97.1072 14.0808C96.8971 13.8544 96.7929 13.4736 96.7929 12.9391V10.8039H96.174V10.0988H96.7929V9.32267L97.7154 9.0442V10.0979H98.752L98.7529 10.8039Z" fill="black"/>
<path d="M103.734 14.333H102.792V11.9256C102.792 11.1666 102.508 10.7866 101.939 10.7866C101.502 10.7866 101.204 11.0067 101.041 11.4469C101.013 11.5394 100.997 11.6526 100.997 11.7855V14.3321H100.056V8.15561H100.997V10.7076H101.015C101.311 10.2432 101.736 10.0114 102.287 10.0114C102.677 10.0114 102.999 10.139 103.255 10.395C103.574 10.7139 103.734 11.1882 103.734 11.8152V14.333Z" fill="black"/>
<path d="M108.883 12.0153C108.883 12.1842 108.871 12.3261 108.848 12.442H106.025C106.037 12.8606 106.172 13.1795 106.434 13.4004C106.673 13.5981 106.981 13.6969 107.358 13.6969C107.776 13.6969 108.156 13.6304 108.5 13.4966L108.647 14.1505C108.245 14.3248 107.773 14.4119 107.226 14.4119C106.57 14.4119 106.054 14.2188 105.68 13.8325C105.304 13.4463 105.119 12.928 105.119 12.2776C105.119 11.6389 105.292 11.1072 105.641 10.6832C106.006 10.2305 106.499 10.0041 107.122 10.0041C107.731 10.0041 108.193 10.2305 108.506 10.6832C108.758 11.0425 108.883 11.4871 108.883 12.0153ZM107.985 11.7719C107.992 11.4925 107.93 11.2518 107.803 11.0488C107.639 10.7874 107.39 10.6562 107.053 10.6562C106.746 10.6562 106.496 10.7838 106.304 11.0398C106.148 11.2437 106.055 11.4871 106.025 11.7719H107.985Z" fill="black"/>
</g>
<defs>
<clipPath id="clip0_7_98">
<rect width="121.333" height="40" fill="white"/>
</clipPath>
</defs>
</svg>
