<svg width="40" height="41" viewBox="0 0 40 41" fill="none" xmlns="http://www.w3.org/2000/svg">
<circle cx="20" cy="20.1114" r="20" fill="#F8F8F8"/>
<path d="M15.2334 19.0882C15.0014 19.0882 14.7747 19.1569 14.5819 19.2858C14.3891 19.4146 14.2388 19.5978 14.15 19.812C14.0613 20.0263 14.038 20.2621 14.0833 20.4895C14.1285 20.717 14.2402 20.9259 14.4042 21.0899C14.5682 21.2539 14.7771 21.3656 15.0046 21.4109C15.2321 21.4561 15.4678 21.4329 15.6821 21.3441C15.8964 21.2554 16.0795 21.1051 16.2083 20.9122C16.3372 20.7194 16.406 20.4927 16.406 20.2608C16.406 19.9498 16.2824 19.6515 16.0625 19.4316C15.8426 19.2117 15.5443 19.0882 15.2334 19.0882ZM19.9238 19.0882C19.6919 19.0882 19.4651 19.1569 19.2723 19.2858C19.0795 19.4146 18.9292 19.5978 18.8404 19.812C18.7517 20.0263 18.7285 20.2621 18.7737 20.4895C18.8189 20.717 18.9306 20.9259 19.0946 21.0899C19.2586 21.2539 19.4675 21.3656 19.695 21.4109C19.9225 21.4561 20.1582 21.4329 20.3725 21.3441C20.5868 21.2554 20.7699 21.1051 20.8988 20.9122C21.0276 20.7194 21.0964 20.4927 21.0964 20.2608C21.0964 19.9498 20.9728 19.6515 20.7529 19.4316C20.533 19.2117 20.2348 19.0882 19.9238 19.0882ZM24.6142 19.0882C24.3823 19.0882 24.1556 19.1569 23.9627 19.2858C23.7699 19.4146 23.6196 19.5978 23.5309 19.812C23.4421 20.0263 23.4189 20.2621 23.4641 20.4895C23.5094 20.717 23.621 20.9259 23.785 21.0899C23.949 21.2539 24.158 21.3656 24.3854 21.4109C24.6129 21.4561 24.8487 21.4329 25.0629 21.3441C25.2772 21.2554 25.4603 21.1051 25.5892 20.9122C25.718 20.7194 25.7868 20.4927 25.7868 20.2608C25.7868 19.9498 25.6633 19.6515 25.4434 19.4316C25.2234 19.2117 24.9252 19.0882 24.6142 19.0882ZM19.9238 8.53473C18.3839 8.53473 16.8591 8.83803 15.4364 9.42732C14.0137 10.0166 12.7211 10.8803 11.6322 11.9692C9.43314 14.1683 8.19772 17.1508 8.19772 20.2608C8.18747 22.9685 9.12501 25.5944 10.8478 27.6834L8.5026 30.0286C8.33989 30.1935 8.22967 30.4029 8.18585 30.6303C8.14202 30.8578 8.16656 31.0932 8.25635 31.3067C8.35375 31.5177 8.51164 31.695 8.70997 31.8161C8.90831 31.9372 9.13815 31.9966 9.37033 31.9868H19.9238C23.0337 31.9868 26.0163 30.7514 28.2153 28.5524C30.4144 26.3533 31.6498 23.3707 31.6498 20.2608C31.6498 17.1508 30.4144 14.1683 28.2153 11.9692C26.0163 9.77015 23.0337 8.53473 19.9238 8.53473ZM19.9238 29.6416H12.1963L13.2868 28.5511C13.3976 28.4425 13.4858 28.313 13.5462 28.1701C13.6065 28.0272 13.638 27.8737 13.6386 27.7186C13.6342 27.4093 13.5078 27.1142 13.2868 26.8977C11.7514 25.364 10.7952 23.3454 10.5813 21.1857C10.3673 19.0261 10.9087 16.8591 12.1133 15.0539C13.3179 13.2486 15.1112 11.9169 17.1875 11.2856C19.2639 10.6543 21.4949 10.7625 23.5005 11.5916C25.506 12.4208 27.1621 13.9197 28.1865 15.8329C29.2108 17.7461 29.5402 19.9554 29.1183 22.0842C28.6965 24.213 27.5496 26.1297 25.873 27.5078C24.1965 28.8858 22.094 29.6399 19.9238 29.6416Z" fill="#404040"/>
</svg>
