<svg width="122" height="40" viewBox="0 0 122 40" fill="none" xmlns="http://www.w3.org/2000/svg">
<g clip-path="url(#clip0_7_130)">
<path d="M116.839 39.5917H4.49389C2.28763 39.5917 0.408305 37.5666 0.408305 35V5C0.408305 2.43341 2.28763 0.408305 4.49389 0.408305H116.839C119.046 0.408305 120.925 2.4334 120.925 5V35C120.925 37.5666 119.046 39.5917 116.839 39.5917Z" stroke="#D6D6D6" stroke-width="0.816609"/>
<path d="M96.0389 29.2147H97.7206V17.9847H96.0389V29.2147ZM111.187 22.0303L109.259 26.8988H109.201L107.2 22.0303H105.389L108.39 28.8347L106.679 32.62H108.433L113.057 22.0306L111.187 22.0303ZM101.649 27.9391C101.099 27.9391 100.33 27.6643 100.33 26.9854C100.33 26.1187 101.287 25.7864 102.113 25.7864C102.852 25.7864 103.201 25.945 103.65 26.1619C103.519 27.2022 102.62 27.9391 101.649 27.9391ZM101.852 21.7847C100.635 21.7847 99.3739 22.3194 98.8521 23.504L100.345 24.1251C100.664 23.504 101.258 23.3019 101.881 23.3019C102.751 23.3019 103.635 23.8216 103.65 24.7465V24.8619C103.345 24.6886 102.692 24.4286 101.896 24.4286C100.286 24.4286 98.6484 25.3096 98.6484 26.9566C98.6484 28.4591 99.9679 29.4272 101.446 29.4272C102.576 29.4272 103.201 28.9215 103.591 28.329H103.65V29.1963H105.274V24.8906C105.274 22.8969 103.779 21.7847 101.852 21.7847ZM91.4587 23.3973H89.0667V19.5482H91.4587C92.716 19.5482 93.4298 20.5855 93.4298 21.4727C93.4298 22.343 92.716 23.3973 91.4587 23.3973ZM91.4154 17.985H87.3857V29.215H89.0668V24.9606H91.4155C93.2794 24.9606 95.1117 23.616 95.1117 21.4731C95.1117 19.3307 93.2793 17.985 91.4154 17.985ZM69.4417 27.941C68.2798 27.941 67.3074 26.9711 67.3074 25.6403C67.3074 24.294 68.2798 23.3104 69.4417 23.3104C70.5887 23.3104 71.4889 24.294 71.4889 25.6403C71.4889 26.9711 70.5887 27.941 69.4417 27.941ZM71.3727 22.6589H71.3146C70.9372 22.2104 70.2109 21.8052 69.2966 21.8052C67.3796 21.8052 65.6228 23.4842 65.6228 25.6403C65.6228 27.7817 67.3796 29.4459 69.2966 29.4459C70.2109 29.4459 70.9372 29.0406 71.3146 28.5779H71.3727V29.1273C71.3727 30.5895 70.5887 31.3705 69.3255 31.3705C68.295 31.3705 67.656 30.6326 67.3944 30.0104L65.9282 30.6181C66.3489 31.6307 67.4666 32.8757 69.3255 32.8757C71.3006 32.8757 72.9704 31.7178 72.9704 28.8957V22.0367H71.3728L71.3727 22.6589ZM74.1322 29.2144H75.8157V17.9844H74.1322V29.2144ZM78.2988 25.5098C78.2555 24.0336 79.4465 23.2813 80.3028 23.2813C80.971 23.2813 81.5367 23.6143 81.7262 24.0915L78.2988 25.5098ZM83.5259 24.2361C83.2065 23.3828 82.2338 21.8052 80.2446 21.8052C78.2696 21.8052 76.629 23.3536 76.629 25.6256C76.629 27.7674 78.2555 29.446 80.433 29.446C82.1898 29.446 83.2066 28.3755 83.6279 27.753L82.3211 26.8846C81.8853 27.5214 81.2903 27.9411 80.433 27.9411C79.5768 27.9411 78.9667 27.5502 78.5752 26.7832L83.7001 24.6706L83.5259 24.2361ZM42.6911 22.9775V24.5982H46.5824C46.4662 25.5099 46.1613 26.1754 45.6966 26.6386C45.1301 27.2028 44.2444 27.8253 42.6911 27.8253C40.2952 27.8253 38.4223 25.9007 38.4223 23.5129C38.4223 21.1252 40.2952 19.2003 42.6911 19.2003C43.9834 19.2003 44.927 19.7069 45.624 20.3582L46.7714 19.2147C45.7982 18.2887 44.5062 17.5796 42.6911 17.5796C39.4091 17.5796 36.6504 20.2423 36.6504 23.5129C36.6504 26.7832 39.4091 29.446 42.6911 29.446C44.4622 29.446 45.7983 28.8671 46.8436 27.7818C47.9181 26.7109 48.2521 25.2059 48.2521 23.9902C48.2521 23.6143 48.2229 23.267 48.1648 22.9775H42.6911ZM52.6766 27.941C51.5147 27.941 50.5128 26.9859 50.5128 25.6256C50.5128 24.2508 51.5147 23.3105 52.6766 23.3105C53.838 23.3105 54.8399 24.2508 54.8399 25.6256C54.8399 26.9859 53.838 27.941 52.6766 27.941ZM52.6766 21.8052C50.5561 21.8052 48.8285 23.4115 48.8285 25.6256C48.8285 27.8253 50.5561 29.446 52.6766 29.446C54.7963 29.446 56.5242 27.8253 56.5242 25.6256C56.5242 23.4115 54.7963 21.8052 52.6766 21.8052ZM61.0701 27.941C59.9091 27.941 58.9068 26.9859 58.9068 25.6256C58.9068 24.2508 59.9091 23.3105 61.0701 23.3105C62.232 23.3105 63.2336 24.2508 63.2336 25.6256C63.2336 26.9859 62.232 27.941 61.0701 27.941ZM61.0701 21.8052C58.9504 21.8052 57.2228 23.4115 57.2228 25.6256C57.2228 27.8253 58.9504 29.446 61.0701 29.446C63.1906 29.446 64.9182 27.8253 64.9182 25.6256C64.9182 23.4115 63.1906 21.8052 61.0701 21.8052Z" fill="black"/>
<path d="M18.3312 19.7148L8.73645 29.8649C8.73681 29.867 8.73753 29.8687 8.73787 29.8709C9.03213 30.973 10.0422 31.7846 11.241 31.7846C11.7202 31.7846 12.1701 31.6555 12.556 31.4288L12.5866 31.4109L23.3873 25.1993L18.3312 19.7148Z" fill="#EB3131"/>
<path d="M28.0444 17.9867L28.0352 17.9805L23.3722 15.2863L18.1188 19.9454L23.3905 25.1987L28.0288 22.5314C28.842 22.0939 29.3941 21.2394 29.3941 20.2541C29.3941 19.2759 28.8495 18.4257 28.0444 17.9867Z" fill="#F6B60B"/>
<path d="M8.73875 10.5999C8.68107 10.8119 8.65076 11.034 8.65076 11.2645V29.2006C8.65076 29.4308 8.68072 29.6536 8.73912 29.8648L18.6651 19.9741L8.73875 10.5999Z" fill="#5778C5"/>
<path d="M18.4029 20.233L23.3694 15.2846L12.5809 9.0505C12.1888 8.81642 11.7311 8.68132 11.2414 8.68132C10.0426 8.68132 9.03113 9.49435 8.73681 10.5978C8.73645 10.5989 8.73645 10.5996 8.73645 10.6006L18.4029 20.233Z" fill="#3BAD49"/>
<path d="M42.3781 11.053H39.7489V11.7015H41.7191C41.6656 12.2306 41.4543 12.6461 41.0981 12.9478C40.7418 13.2496 40.2869 13.4012 39.749 13.4012C39.1589 13.4012 38.659 13.1963 38.2492 12.7893C37.8478 12.3739 37.6437 11.8601 37.6437 11.2412C37.6437 10.6223 37.8478 10.1086 38.2492 9.69314C38.659 9.28615 39.1589 9.08261 39.749 9.08261C40.0518 9.08261 40.3405 9.13453 40.6051 9.24824C40.8699 9.36187 41.0825 9.5205 41.2487 9.72405L41.7487 9.22579C41.5219 8.96889 41.2347 8.77244 40.8783 8.62926C40.522 8.48608 40.1503 8.41736 39.7489 8.41736C38.9617 8.41736 38.2943 8.68962 37.7492 9.23281C37.2042 9.77734 36.931 10.4482 36.931 11.2412C36.931 12.0342 37.2042 12.7065 37.7492 13.2497C38.2942 13.7928 38.9617 14.0652 39.7489 14.0652C40.5755 14.0652 41.2346 13.8013 41.7416 13.2651C42.188 12.8188 42.4161 12.2153 42.4161 11.4602C42.4161 11.3325 42.4007 11.1962 42.3781 11.053ZM43.3967 8.53795V13.9444H46.5637V13.2805H44.0937V11.5654H46.3216V10.917H44.0937V9.20327H46.5637V8.53793L43.3967 8.53795ZM51.0047 9.20329V8.53795H47.2771V9.20329H48.7924V13.9444H49.4895V9.20329H51.0047ZM54.3795 8.53795H53.6825V13.9444H54.3795V8.53795ZM58.9806 9.20329V8.53795H55.253V9.20329H56.7682V13.9444H57.4653V9.20329H58.9806ZM66.0147 9.24119C65.4768 8.68958 64.8177 8.41731 64.0305 8.41731C63.2419 8.41731 62.5829 8.68957 62.0449 9.23277C61.5069 9.76894 61.2422 10.4412 61.2422 11.2412C61.2422 12.0411 61.5069 12.7135 62.0449 13.2497C62.5829 13.7928 63.2419 14.0651 64.0305 14.0651C64.8106 14.0651 65.4767 13.7928 66.0147 13.2497C66.5527 12.7135 66.8174 12.0412 66.8174 11.2412C66.8174 10.4482 66.5527 9.77726 66.0147 9.24119ZM62.5448 9.6931C62.9462 9.2861 63.4391 9.08256 64.0305 9.08256C64.6206 9.08256 65.1135 9.2861 65.5078 9.6931C65.9091 10.0931 66.1062 10.6151 66.1062 11.2411C66.1062 11.8686 65.9091 12.3892 65.5078 12.7893C65.1134 13.1963 64.6205 13.4011 64.0305 13.4011C63.4391 13.4011 62.9462 13.1962 62.5448 12.7893C62.1519 12.3808 61.9548 11.8686 61.9548 11.2411C61.9548 10.6151 62.1519 10.1015 62.5448 9.6931ZM68.4735 10.5773L68.444 9.53444H68.4735L71.2309 13.9443H71.9589V8.53789H71.2618V11.7014L71.2914 12.7443H71.2618L68.6256 8.53789H67.7764V13.9443H68.4735V10.5773Z" fill="black"/>
</g>
<defs>
<clipPath id="clip0_7_130">
<rect width="121.333" height="40" fill="white"/>
</clipPath>
</defs>
</svg>
