<svg width="24" height="24" viewBox="0 0 24 24" fill="none" xmlns="http://www.w3.org/2000/svg">
<path d="M0.000732422 12.0002C0.000732422 5.37266 5.3734 0 12.0009 0C18.6284 0 24.0011 5.37266 24.0011 12.0002C24.0011 18.6277 18.6284 24.0004 12.0009 24.0004C5.3734 24.0004 0.000732422 18.6277 0.000732422 12.0002Z" fill="#F0F0F0"/>
<path d="M11.9986 5.60019C10.2604 5.60019 10.0423 5.60779 9.3596 5.63886C8.67825 5.67006 8.21317 5.77793 7.80622 5.9362C7.38528 6.09967 7.0282 6.31834 6.67246 6.67422C6.31645 7.02996 6.09778 7.38703 5.93378 7.80785C5.7751 8.21492 5.6671 8.68013 5.63643 9.36122C5.6059 10.0439 5.5979 10.2622 5.5979 12.0004C5.5979 13.7385 5.60563 13.956 5.63657 14.6387C5.6679 15.32 5.77577 15.7851 5.93391 16.1921C6.09751 16.613 6.31619 16.9701 6.67206 17.3258C7.02767 17.6818 7.38475 17.901 7.80542 18.0645C8.21263 18.2228 8.67785 18.3306 9.35906 18.3618C10.0417 18.3929 10.2598 18.4005 11.9978 18.4005C13.7361 18.4005 13.9536 18.3929 14.6363 18.3618C15.3176 18.3306 15.7832 18.2228 16.1904 18.0645C16.6112 17.901 16.9678 17.6818 17.3234 17.3258C17.6794 16.9701 17.8981 16.613 18.0621 16.1922C18.2194 15.7851 18.3274 15.3199 18.3594 14.6388C18.3901 13.9561 18.3981 13.7385 18.3981 12.0004C18.3981 10.2622 18.3901 10.044 18.3594 9.36135C18.3274 8.68 18.2194 8.21492 18.0621 7.80798C17.8981 7.38703 17.6794 7.02996 17.3234 6.67422C16.9674 6.31821 16.6114 6.09954 16.19 5.9362C15.782 5.77793 15.3167 5.67006 14.6353 5.63886C13.9526 5.60779 13.7353 5.60019 11.9966 5.60019H11.9986Z" fill="black"/>
<path d="M11.4257 6.75325C11.5961 6.75298 11.7862 6.75325 11.9999 6.75325C13.7087 6.75325 13.9112 6.75938 14.5861 6.79005C15.2101 6.81858 15.5487 6.92285 15.7744 7.01045C16.073 7.12646 16.286 7.26513 16.5098 7.48913C16.7338 7.71314 16.8725 7.92648 16.9888 8.22515C17.0764 8.45049 17.1808 8.78917 17.2092 9.41318C17.2399 10.0879 17.2465 10.2905 17.2465 11.9986C17.2465 13.7066 17.2399 13.9093 17.2092 14.584C17.1807 15.208 17.0764 15.5467 16.9888 15.772C16.8728 16.0707 16.7338 16.2834 16.5098 16.5072C16.2858 16.7312 16.0732 16.8699 15.7744 16.9859C15.549 17.0739 15.2101 17.1779 14.5861 17.2064C13.9114 17.2371 13.7087 17.2438 11.9999 17.2438C10.2909 17.2438 10.0883 17.2371 9.41365 17.2064C8.78964 17.1776 8.45096 17.0734 8.22522 16.9858C7.92655 16.8698 7.71321 16.7311 7.4892 16.5071C7.2652 16.2831 7.12653 16.0703 7.01026 15.7715C6.92266 15.5461 6.81825 15.2075 6.78985 14.5834C6.75919 13.9088 6.75305 13.7061 6.75305 11.997C6.75305 10.2879 6.75919 10.0863 6.78985 9.41158C6.81839 8.78757 6.92266 8.44889 7.01026 8.22329C7.12626 7.92461 7.2652 7.71127 7.4892 7.48727C7.71321 7.26326 7.92655 7.12459 8.22522 7.00832C8.45083 6.92032 8.78964 6.81632 9.41365 6.78765C10.0041 6.76098 10.2329 6.75298 11.4257 6.75165V6.75325Z" fill="white"/>
<path d="M15.4167 7.81628C14.9927 7.81628 14.6487 8.15989 14.6487 8.58403C14.6487 9.00804 14.9927 9.35205 15.4167 9.35205C15.8407 9.35205 16.1847 9.00804 16.1847 8.58403C16.1847 8.16002 15.8407 7.81601 15.4167 7.81601V7.81628Z" fill="black"/>
<path d="M11.9989 8.7135C10.1838 8.7135 8.71216 10.1851 8.71216 12.0003C8.71216 13.8154 10.1838 15.2863 11.9989 15.2863C13.814 15.2863 15.2851 13.8154 15.2851 12.0003C15.2851 10.1851 13.8139 8.7135 11.9988 8.7135H11.9989Z" fill="black"/>
<path d="M12.0045 9.86658C13.1826 9.86658 14.1379 10.8217 14.1379 12C14.1379 13.1781 13.1826 14.1334 12.0045 14.1334C10.8262 14.1334 9.87109 13.1781 9.87109 12C9.87109 10.8217 10.8262 9.86658 12.0045 9.86658Z" fill="white"/>
</svg>
