<svg width="24" height="24" viewBox="0 0 24 24" fill="none" xmlns="http://www.w3.org/2000/svg">
<path d="M0.000366211 12.0002C0.000366211 5.37266 5.37303 0 12.0005 0C18.6281 0 24.0007 5.37266 24.0007 12.0002C24.0007 18.6277 18.6281 24.0004 12.0005 24.0004C5.37303 24.0004 0.000366211 18.6277 0.000366211 12.0002Z" fill="#F0F0F0"/>
<path d="M9.24001 9.93878H6.52051V18.1098H9.24001V9.93878Z" fill="black"/>
<path d="M9.41929 7.41125C9.40164 6.61009 8.82873 5.99988 7.8984 5.99988C6.96808 5.99988 6.35986 6.61009 6.35986 7.41125C6.35986 8.19581 6.9501 8.82359 7.8631 8.82359H7.88048C8.82873 8.82359 9.41929 8.19581 9.41929 7.41125Z" fill="black"/>
<path d="M19.0506 13.4254C19.0506 10.9156 17.7089 9.7475 15.9194 9.7475C14.4755 9.7475 13.8291 10.5406 13.4681 11.0969V9.93958H10.7483C10.7841 10.7063 10.7483 18.1106 10.7483 18.1106H13.4681V13.5472C13.4681 13.303 13.4858 13.0594 13.5577 12.8846C13.7542 12.3967 14.2017 11.8916 14.9531 11.8916C15.9375 11.8916 16.3311 12.6408 16.3311 13.7389V18.1103H19.0505L19.0506 13.4254Z" fill="black"/>
</svg>
