<svg width="150" height="150" viewBox="0 0 150 150" fill="none" xmlns="http://www.w3.org/2000/svg">
<path d="M0 34.0909C0 15.263 15.263 0 34.0909 0H115.909C134.737 0 150 15.263 150 34.0909V115.909C150 134.737 134.737 150 115.909 150H34.0909C15.263 150 0 134.737 0 115.909V34.0909Z" fill="url(#paint0_linear_2652_16792)"/>
<path d="M84.5267 110.071L60.8242 95.6248V125.052L84.5267 110.071Z" fill="white"/>
<path d="M36.6416 36.2919V112.054C36.6416 117.672 39.4773 123.023 44.3462 125.805C46.7539 127.196 49.4292 127.892 52.1044 127.838C53.335 127.838 54.2981 126.768 54.2981 125.537V22.7018C54.2981 21.4712 53.2815 20.4546 52.0509 20.4546C49.1082 20.4546 46.1119 21.3642 43.5437 23.0763C39.1028 25.9655 36.6416 30.995 36.6416 36.2919Z" fill="white"/>
<path d="M60.8242 52.7192L84.5267 38.273L60.8242 23.2917V52.7192Z" fill="white"/>
<path d="M101.915 49.2977L93.8357 44.1612C91.963 42.9841 89.5553 42.9307 87.6827 44.1078L60.877 60.4801V84.1826L101.861 59.1425C105.5 56.8953 105.553 51.5984 101.915 49.2977Z" fill="white"/>
<path d="M83.5667 78.0276L71.8492 85.1972L64.1445 89.9056L87.633 104.245C89.5057 105.422 91.9134 105.368 93.786 104.191L101.919 99.0548C105.557 96.7542 105.503 91.4037 101.865 89.1565L83.5667 78.0276Z" fill="white"/>
<path d="M127.915 74.1694C127.915 68.8725 125.24 64.0571 120.799 61.2214L116.037 58.2251L89.9268 74.1694L116.037 90.1138L120.799 87.1175C125.24 84.2818 127.915 79.4664 127.915 74.1694Z" fill="white"/>
<defs>
<linearGradient id="paint0_linear_2652_16792" x1="38.1818" y1="17.0455" x2="103.636" y2="150" gradientUnits="userSpaceOnUse">
<stop stop-color="#9AE769"/>
<stop offset="1" stop-color="#69BD06"/>
</linearGradient>
</defs>
</svg>
