<svg width="40" height="41" viewBox="0 0 40 41" fill="none" xmlns="http://www.w3.org/2000/svg">
<circle cx="20" cy="20.2228" r="20" fill="#F8F8F8"/>
<path d="M13.1828 24.6799C14.8902 24.6799 16.2743 23.2958 16.2743 21.5884C16.2743 19.8811 14.8902 18.497 13.1828 18.497C11.4755 18.497 10.0914 19.8811 10.0914 21.5884C10.0914 23.2958 11.4755 24.6799 13.1828 24.6799Z" stroke="black" stroke-width="1.70561" stroke-linecap="round" stroke-linejoin="round"/>
<path d="M24.0028 31.6355C25.7101 31.6355 27.0942 30.2515 27.0942 28.5441C27.0942 26.8368 25.7101 25.4527 24.0028 25.4527C22.2954 25.4527 20.9114 26.8368 20.9114 28.5441C20.9114 30.2515 22.2954 31.6355 24.0028 31.6355Z" stroke="black" stroke-width="1.70561" stroke-linecap="round" stroke-linejoin="round"/>
<path d="M24.0028 17.7242C25.7101 17.7242 27.0942 16.3401 27.0942 14.6327C27.0942 12.9254 25.7101 11.5413 24.0028 11.5413C22.2954 11.5413 20.9114 12.9254 20.9114 14.6327C20.9114 16.3401 22.2954 17.7242 24.0028 17.7242Z" stroke="black" stroke-width="1.70561" stroke-linecap="round" stroke-linejoin="round"/>
<path d="M21.4026 16.3043L15.7828 19.917" stroke="black" stroke-width="1.70561" stroke-linecap="round" stroke-linejoin="round"/>
<path d="M15.7828 23.2599L21.4026 26.8725" stroke="black" stroke-width="1.70561" stroke-linecap="round" stroke-linejoin="round"/>
</svg>
