<svg width="25" height="24" viewBox="0 0 25 24" fill="none" xmlns="http://www.w3.org/2000/svg">
<path d="M0.00109863 12.0002C0.00109863 5.37266 5.37376 0 12.0013 0C18.6288 0 24.0015 5.37266 24.0015 12.0002C24.0015 18.6277 18.6288 24.0004 12.0013 24.0004C5.37376 24.0004 0.00109863 18.6277 0.00109863 12.0002Z" fill="#F0F0F0"/>
<path d="M12.6422 9.7535L12.6673 10.1687L12.2476 10.1179C10.72 9.92298 9.38533 9.262 8.25215 8.15188L7.69816 7.60106L7.55546 8.00782C7.25328 8.91456 7.44634 9.87213 8.07588 10.5162C8.41164 10.8721 8.33609 10.9229 7.75691 10.7111C7.55546 10.6433 7.37919 10.5924 7.3624 10.6179C7.30364 10.6772 7.5051 11.4483 7.66458 11.7534C7.88282 12.1771 8.3277 12.5923 8.81454 12.8381L9.22584 13.033L8.739 13.0415C8.26894 13.0415 8.25215 13.0499 8.30252 13.2279C8.47039 13.7787 9.13351 14.3634 9.87217 14.6177L10.3926 14.7956L9.93932 15.0668C9.26781 15.4566 8.47879 15.6769 7.68976 15.6939C7.31204 15.7024 7.00146 15.7362 7.00146 15.7617C7.00146 15.8464 8.02552 16.321 8.62148 16.5074C10.4094 17.0582 12.533 16.8209 14.1279 15.8803C15.261 15.2108 16.3942 13.8804 16.923 12.5923C17.2084 11.9059 17.4938 10.6518 17.4938 10.0501C17.4938 9.66028 17.519 9.60944 17.9891 9.14336C18.2661 8.87218 18.5263 8.57559 18.5766 8.49085C18.6606 8.32984 18.6522 8.32984 18.2241 8.4739C17.5106 8.72812 17.4099 8.69423 17.7624 8.31289C18.0226 8.04172 18.3332 7.55022 18.3332 7.40616C18.3332 7.38073 18.2073 7.4231 18.0646 7.49937C17.9135 7.58411 17.5778 7.71123 17.3259 7.78749L16.8727 7.93155L16.4614 7.65191C16.2347 7.49937 15.9158 7.32989 15.7479 7.27904C15.3198 7.16041 14.6651 7.17735 14.279 7.31294C13.2297 7.69428 12.5666 8.67728 12.6422 9.7535Z" fill="black"/>
</svg>
